<?xml version="1.0" standalone="no"?>
<svg xmlns="http://www.w3.org/2000/svg" viewBox="0 0 99.864 29" width="99.864" height="29"><g fill="#d29494" color="#d29494" transform="translate(0, 0) scale(2.2834646)"><svg width="12.7" height="12.7" x="0.0" y="0.0" viewBox="0 0 12.7 12.7"><g transform="translate(0,-284.29998)"><path style="" d="m 10.290783,285.24314 a 1.8921414,1.8921414 0 0 0 -1.7275207,2.69054 l 1.5217277,3.26589 a 0.21333678,0.21333678 0 0 0 0.386609,0 l 1.522542,-3.26589 a 1.8921414,1.8921414 0 0 0 -1.703358,-2.69054 z m -0.03964,0.9571 a 0.93459182,0.93459182 0 0 1 0.961906,0.93435 0.93462068,0.93462068 0 1 1 -1.8692413,0 0.93459182,0.93459182 0 0 1 0.9073353,-0.93435 z" fill="currentColor" stroke="none"></path><path style="" d="m 2.9107416,288.45653 a 2.3651767,2.3651767 0 0 0 -2.1602837,3.36398 l 1.9023637,4.08249 a 0.26667098,0.26667098 0 0 0 0.4832607,0 l 1.9023637,-4.08249 a 2.3651767,2.3651767 0 0 0 -2.1277044,-3.36398 z m -0.033394,1.18089 a 1.1677427,1.1677427 0 0 1 1.1845316,1.18407 1.1677427,1.1677427 0 1 1 -2.3353979,0 1.1677427,1.1677427 0 0 1 1.1508663,-1.18407 z" fill="currentColor" stroke="none"></path><path style="" d="m 4.077112,295.43125 3.0601007,-2.61867 A 0.95808604,0.95808604 0 0 1 7.47768,292.62501 l 2.406461,-0.74292 a 0.1085979,0.1085979 0 0 0 -0.063619,-0.20753 l -2.4064611,0.74292 a 1.1752819,1.1752819 0 0 0 -0.4180421,0.23009 l -3.0593824,2.61867 a 0.10859792,0.10859792 0 0 0 0.1407839,0.16501 z" fill="currentColor" stroke="none"></path></g></svg></g><line x1="41" y1="1" x2="41" y2="28" stroke="#182bc2" stroke-linecap="round"></line><path fill="#182bc2" fill-rule="nonzero" d="M1.22 17.06Q0.94 17.06 0.47 16.49Q0 15.91 0 15.43Q0 14.95 1.43 8.72Q2.86 2.50 2.88 1.01L2.88 1.01Q2.88 0.60 2.99 0.44Q3.10 0.29 3.44 0.29Q3.79 0.29 4.36 1.03Q4.92 1.78 4.92 2.63Q4.92 3.48 3.19 10.51L3.19 10.51Q3.02 11.16 2.74 12.37Q2.45 13.58 2.28 14.23Q2.11 14.88 1.92 15.65L1.92 15.65Q1.51 17.06 1.22 17.06ZM9.29 17.66L9.29 17.66Q8.69 17.66 7.92 16.88Q7.15 16.10 7.15 15.59Q7.15 15.07 7.57 14.56Q7.99 14.04 8.44 14.04Q8.88 14.04 9.47 15.22Q10.06 16.39 10.06 16.99L10.06 16.99Q10.06 17.18 9.79 17.42Q9.53 17.66 9.29 17.66ZM25.03 8.81L25.03 8.81Q25.03 9.26 22.92 9.86L22.92 9.86Q23.11 12.36 23.11 14.11L23.11 14.11Q23.11 17.14 22.34 17.14L22.34 17.14Q21.94 17.14 21.70 16.63Q21.46 16.13 21.31 14.88L21.31 14.88Q21.14 12.58 20.95 10.37L20.95 10.37Q19.87 10.66 18.98 10.88Q18.10 11.11 16.30 11.62L16.30 11.62Q14.18 17.14 13.80 17.14Q13.42 17.14 12.97 16.67Q12.53 16.20 12.53 15.67L12.53 15.67Q12.53 15.43 13.90 12.26L13.90 12.26L13.73 12.26Q13.25 12.26 12.88 11.95Q12.50 11.64 12.50 11.17Q12.50 10.70 14.88 9.94L14.88 9.94Q15.26 9.07 15.50 8.38L15.50 8.38Q16.06 7.01 17.04 4.63Q18.02 2.26 18.29 1.60Q18.55 0.94 19.21 0.47Q19.87 0 20.50 0L20.50 0Q21.24 0 21.83 2.38Q22.42 4.75 22.78 8.26L22.78 8.26Q23.45 8.18 23.95 8.18L23.95 8.18Q25.03 8.18 25.03 8.81ZM17.18 9.31L17.18 9.31Q18.89 8.86 20.78 8.54L20.78 8.54Q20.35 4.44 19.94 2.38L19.94 2.38Q18.86 4.85 17.18 9.31ZM29.57 17.66L29.57 17.66Q28.97 17.66 28.20 16.88Q27.43 16.10 27.43 15.59Q27.43 15.07 27.85 14.56Q28.27 14.04 28.72 14.04Q29.16 14.04 29.75 15.22Q30.34 16.39 30.34 16.99L30.34 16.99Q30.34 17.18 30.07 17.42Q29.81 17.66 29.57 17.66ZM38.59 2.35L38.59 2.35L34.49 2.54Q34.10 2.54 33.70 2.04Q33.29 1.54 33.29 1.06L33.29 1.06Q33.29 0.62 34.67 0.50Q36.05 0.38 40.73 0.38L40.73 0.38Q43.15 0.38 44.72 0.91Q46.30 1.44 46.30 2.09L46.30 2.09Q46.30 2.54 45.50 2.54Q44.71 2.54 43.30 2.45Q41.88 2.35 40.58 2.33L40.58 2.33Q40.66 2.57 40.66 2.86L40.66 2.86Q40.66 3.74 38.78 11.11L38.78 11.11Q38.59 11.88 38.21 13.51Q37.82 15.14 37.63 15.79L37.63 15.79Q37.30 17.06 37.03 17.06L37.03 17.06Q36.67 17.06 36.23 16.52Q35.78 15.98 35.78 15.43Q35.78 14.88 37.08 9.76Q38.38 4.63 38.59 2.35ZM48.10 17.66L48.10 17.66Q47.50 17.66 46.73 16.88Q45.96 16.10 45.96 15.59Q45.96 15.07 46.38 14.56Q46.80 14.04 47.24 14.04Q47.69 14.04 48.28 15.22Q48.86 16.39 48.86 16.99L48.86 16.99Q48.86 17.18 48.60 17.42Q48.34 17.66 48.10 17.66Z" transform="translate(51, 5.74)"></path></svg>